# xmcd CD database file
#
# Track frame offsets:
#	150
#	33018
#	49211
#	76522
#	112555
#	137097
#	171618
#	197545
#	220853
#	253513
#
# Disc length: 3475 seconds
#
# Revision: 0
# Processed by: cddbd v1.5.2PL0 Copyright (c) Steve Scherf et al.
# Submitted via: CDex 1.51
#
DISCID=790d910a
DTITLE=Babos - Variáció
DYEAR=2006
DGENRE=Jazz
TTITLE0=Chacho Rom
TTITLE1=Chacho Rom II
TTITLE2=Paradicsom
TTITLE3=EastWes
TTITLE4=Tango hungaro
TTITLE5=Botoló
TTITLE6=Bolondház
TTITLE7=Variáció
TTITLE8=Kígyó Ballada
TTITLE9=Himnusz
EXTD=YEAR: 2006
EXTT0=
EXTT1=
EXTT2=
EXTT3=
EXTT4=
EXTT5=
EXTT6=
EXTT7=
EXTT8=
EXTT9=
PLAYORDER=
